HIERARCHY
ROOT Hips
{
	OFFSET -0.179506 -22.333345 2.821913
	CHANNELS 6 Xposition Yposition Zposition Zrotation Yrotation Xrotation 
	JOINT LeftUpLeg
	{
		OFFSET 6.951974 -9.140623 -0.681533
		CHANNELS 3 Zrotation Yrotation Xrotation
		JOINT LeftLeg
		{
			OFFSET 3.427654 -37.519855 -0.449580
			CHANNELS 3 Zrotation Yrotation Xrotation
			JOINT LeftFoot
			{
				OFFSET -1.359570 -39.796059 -4.369333
				CHANNELS 3 Zrotation Yrotation Xrotation
				JOINT LeftToe
				{
					OFFSET 2.635814 -5.579078 11.928840
					CHANNELS 3 Zrotation Yrotation Xrotation
					End Site
					{
						OFFSET 0.000000 0.000000 0.000000
					}
				}
			}
		}
	}
	JOINT RightUpLeg
	{
		OFFSET -6.767048 -9.052170 -0.431982
		CHANNELS 3 Zrotation Yrotation Xrotation
		JOINT RightLeg
		{
			OFFSET -3.829005 -38.256897 -0.885003
			CHANNELS 3 Zrotation Yrotation Xrotation
			JOINT RightFoot
			{
				OFFSET 1.577377 -39.841461 -4.231180
				CHANNELS 3 Zrotation Yrotation Xrotation
				JOINT RightToe
				{
					OFFSET -2.537174 -4.814398 12.334795
					CHANNELS 3 Zrotation Yrotation Xrotation
					End Site
					{
						OFFSET 0.000000 0.000000 0.000000
					}
				}
			}
		}
	}
	JOINT Spine
	{
		OFFSET -0.253288 10.896323 -2.669631
		CHANNELS 3 Zrotation Yrotation Xrotation
		JOINT Spine1
		{
			OFFSET 0.548704 13.518043 0.109247
			CHANNELS 3 Zrotation Yrotation Xrotation
			JOINT Spine2
			{
				OFFSET 0.145701 5.292222 2.542457
				CHANNELS 3 Zrotation Yrotation Xrotation
				JOINT Neck
				{
					OFFSET -0.277840 21.387037 -4.285703
					CHANNELS 3 Zrotation Yrotation Xrotation
					JOINT Head
					{
						OFFSET 0.515184 6.496960 5.134897
						CHANNELS 3 Zrotation Yrotation Xrotation
						End Site
						{
							OFFSET 0.000000 0.000000 0.000000
						}
					}
				}
				JOINT LeftShoulder
				{
					OFFSET 7.884473 12.174932 -3.408961
					CHANNELS 3 Zrotation Yrotation Xrotation
					JOINT LeftArm
					{
						OFFSET 9.097692 3.046888 -0.886815
						CHANNELS 3 Zrotation Yrotation Xrotation
						JOINT LeftForeArm
						{
							OFFSET 25.961220 -1.277207 -2.745643
							CHANNELS 3 Zrotation Yrotation Xrotation
							JOINT LeftHand
							{
								OFFSET 24.923361 0.898606 -0.117091
								CHANNELS 3 Zrotation Yrotation Xrotation
								End Site
								{
									OFFSET 0.000000 0.000000 0.000000
								}
							}
						}
					}
				}
				JOINT RightShoulder
				{
					OFFSET -8.175920 11.883285 -3.861528
					CHANNELS 3 Zrotation Yrotation Xrotation
					JOINT RightArm
					{
						OFFSET -9.601238 3.255117 -0.914307
						CHANNELS 3 Zrotation Yrotation Xrotation
						JOINT RightForeArm
						{
							OFFSET -25.374195 -1.332924 -2.140099
							CHANNELS 3 Zrotation Yrotation Xrotation
							JOINT RightHand
							{
								OFFSET -25.529810 0.777228 -0.555919
								CHANNELS 3 Zrotation Yrotation Xrotation
								End Site
								{
									OFFSET 0.000000 0.000000 0.000000
								}
							}
						}
					}
				}
			}
		}
	}
}
MOTION
Frames: 7
Frame Time: 0.033333
-5.080530 22.680155 51.154671 178.984713 5.481820 136.461508 24.656367 17.831838 -55.188752 -16.138892 24.559318 111.821226 -2.799856 -5.151829 -28.439405 nan nan nan -21.305845 -18.039524 -52.260208 16.969514 -10.112427 100.756672 10.747139 30.084652 -30.804106 nan nan nan 4.854078 0.817057 52.921659 -10.147199 -1.126273 -15.076645 -4.648979 3.789833 5.317662 -9.764577 -8.278999 -4.108570 15.226502 -4.789857 -27.215742 22.249629 -31.257463 -25.873227 -44.171607 -35.501448 11.145293 18.112632 -29.194122 6.481907 38.587789 -15.089425 -7.760377 -39.907988 26.434750 -17.146664 -3.914404 10.790240 -28.762790 7.274090 25.044614 20.352825 -8.216427 12.241034 -6.311497 
-5.095005 23.982590 51.431763 179.269614 4.992200 136.327179 23.937830 17.371351 -53.758145 -16.513499 23.803173 110.435105 -3.037766 -5.156452 -28.188676 nan nan nan -21.210799 -18.172414 -50.292894 17.043522 -9.373140 99.341107 10.831580 29.933623 -30.632463 nan nan nan 5.053304 0.515824 53.661341 -10.455181 -1.406043 -15.352491 -4.658085 3.556727 5.397393 -9.786969 -8.932297 -4.935933 15.379604 -4.396583 -26.958834 21.692169 -31.100810 -26.126735 -45.019683 -34.929646 11.807216 17.666039 -29.553198 7.304995 39.715977 -15.009007 -7.522315 -40.417981 26.575940 -17.783622 -3.986020 10.766213 -28.953746 7.450032 23.974598 19.947779 -7.758130 12.063969 -5.048399 
-5.037871 25.188475 51.583267 179.588030 4.708032 136.606020 23.704790 17.088709 -52.726817 -16.655168 23.301988 109.199674 -3.239454 -5.192808 -27.919538 nan nan nan -21.060606 -18.099948 -48.835381 16.911348 -9.042756 98.004345 10.862749 29.767957 -30.486349 nan nan nan 5.190586 0.492466 53.558676 -10.640149 -1.566160 -15.347113 -4.716051 3.651741 5.301035 -9.498993 -9.442741 -5.105297 15.618294 -3.999729 -27.081439 21.120142 -31.511669 -25.926961 -45.731130 -34.547975 12.463134 17.546200 -29.578906 7.540148 40.385513 -15.142699 -7.173413 -40.512811 26.868928 -17.964462 -3.978532 10.443212 -28.986103 7.589501 23.027180 19.881873 -7.220455 11.973807 -4.225206 
-4.955223 26.341314 51.601646 179.944370 4.565874 137.106089 23.822195 16.873165 -51.893154 -16.738350 22.950454 108.035889 -3.396368 -5.381078 -27.651681 nan nan nan -20.884185 -17.863098 -47.582329 16.680144 -8.933326 96.687392 10.765604 29.526617 -30.530524 nan nan nan 5.353457 0.700689 52.757718 -10.734932 -1.556609 -14.783634 -4.826298 4.090469 4.767225 -9.030402 -10.050635 -4.231884 15.920989 -3.601303 -27.907639 20.286339 -33.006512 -24.860836 -45.662603 -34.410076 12.637906 17.878175 -29.355683 7.197098 39.754700 -15.664959 -6.327178 -40.045857 27.473919 -17.676366 -4.044984 9.508856 -28.795016 7.811451 22.414174 20.421872 -6.824522 11.902750 -3.429940 
-4.871116 27.481853 51.674301 -179.708418 4.228905 137.527372 23.537500 16.600711 -51.186273 -16.964845 22.442191 106.792880 -3.457143 -5.345960 -27.335301 nan nan nan -20.643217 -17.832255 -46.413576 16.648903 -8.647740 95.432596 10.714712 29.032350 -30.552013 nan nan nan 5.528648 0.430289 52.320673 -10.983525 -1.649698 -14.482191 -4.906599 3.880855 4.677163 -8.937429 -10.454049 -4.943966 16.006949 -3.440244 -27.973506 19.214311 -33.063162 -24.403566 -45.807395 -33.914532 12.723853 17.883154 -29.951088 7.705799 38.183117 -15.993431 -5.550018 -40.135043 27.777983 -17.614535 -4.410158 9.452703 -29.051498 7.888262 21.512944 20.463353 -6.770386 11.806514 -2.314298 
-4.691547 28.642450 51.696899 -179.612073 4.193895 137.951324 23.395857 16.803697 -50.267115 -17.246437 21.855387 105.571774 -3.488029 -5.353459 -26.972096 nan nan nan -20.129087 -17.487716 -45.542342 16.699020 -8.297830 94.266824 10.558774 28.500956 -30.509603 nan nan nan 5.426243 0.488713 51.783726 -11.281472 -1.558690 -14.093932 -4.930722 3.707089 4.391157 -8.898210 -10.708144 -5.195311 16.187935 -3.159231 -28.093725 18.052583 -33.204796 -23.831105 -45.860429 -33.233887 12.843029 17.874479 -30.541821 8.460176 36.497238 -16.412203 -4.710926 -40.085392 28.275072 -17.442089 -4.585165 9.327248 -29.304947 7.721636 20.707688 20.532325 -6.203006 11.655635 -1.219157 
-4.607181 29.793657 51.711830 -179.260185 3.915676 138.356691 23.195172 16.522290 -49.565977 -17.579247 21.338238 104.384493 -3.408731 -5.210689 -26.640422 nan nan nan -19.809369 -17.385919 -44.349755 16.825838 -8.030176 92.957578 10.462907 27.992108 -30.465903 nan nan nan 5.681630 0.321134 51.273401 -11.568558 -1.481857 -13.622288 -5.014208 3.360761 4.148979 -9.018261 -11.157130 -5.554853 16.350767 -2.795234 -28.101421 16.702677 -33.384509 -23.240113 -45.892061 -32.563267 13.038116 17.972718 -31.144691 8.932485 34.980170 -16.916450 -4.138336 -40.038447 28.714879 -17.264810 -4.953131 9.034221 -29.463031 7.845129 19.944856 20.422424 -5.942369 11.706395 -0.304890 
